<?xml version="1.0" encoding="utf-8" standalone="no"?>
<!DOCTYPE svg PUBLIC "-//W3C//DTD SVG 1.1//EN"
  "http://www.w3.org/Graphics/SVG/1.1/DTD/svg11.dtd">
<svg xmlns:xlink="http://www.w3.org/1999/xlink" width="864pt" height="273.6pt" viewBox="0 0 864 273.6" xmlns="http://www.w3.org/2000/svg" version="1.1">
 <metadata>
  <rdf:RDF xmlns:dc="http://purl.org/dc/elements/1.1/" xmlns:cc="http://creativecommons.org/ns#" xmlns:rdf="http://www.w3.org/1999/02/22-rdf-syntax-ns#">
   <cc:Work>
    <dc:type rdf:resource="http://purl.org/dc/dcmitype/StillImage"/>
    <dc:date>2026-09-12T18:46:52.030739</dc:date>
    <dc:format>image/svg+xml</dc:format>
    <dc:creator>
     <cc:Agent>
      <dc:title>Matplotlib v3.10.9, https://matplotlib.org/</dc:title>
     </cc:Agent>
    </dc:creator>
   </cc:Work>
  </rdf:RDF>
 </metadata>
 <defs>
  <style type="text/css">*{stroke-linejoin: round; stroke-linecap: butt}</style>
 </defs>
 <g id="figure_1">
  <g id="patch_1">
   <path d="M 0 273.6 
L 864 273.6 
L 864 0 
L 0 0 
z
" style="fill: #ffffff"/>
  </g>
  <g id="axes_1">
   <g id="patch_2">
    <path d="M 56.16 210.672 
L 291.218824 210.672 
L 291.218824 57.456 
L 56.16 57.456 
z
" style="fill: #ffffff"/>
   </g>
   <g id="matplotlib.axis_1">
    <g id="xtick_1">
     <g id="line2d_1">
      <defs>
       <path id="mc8c0bfb57c" d="M 0 0 
L 0 3.5 
" style="stroke: #000000; stroke-width: 0.8"/>
      </defs>
      <g>
       <use xlink:href="#mc8c0bfb57c" x="88.213476" y="210.672" style="stroke: #000000; stroke-width: 0.8"/>
      </g>
     </g>
     <g id="text_1">
      <!-- −2 -->
      <g transform="translate(80.842382 225.270437) scale(0.1 -0.1)">
       <defs>
        <path id="DejaVuSans-2212" d="M 678 2272 
L 4684 2272 
L 4684 1741 
L 678 1741 
L 678 2272 
z
" transform="scale(0.015625)"/>
        <path id="DejaVuSans-32" d="M 1228 531 
L 3431 531 
L 3431 0 
L 469 0 
L 469 531 
Q 828 903 1448 1529 
Q 2069 2156 2228 2338 
Q 2531 2678 2651 2914 
Q 2772 3150 2772 3378 
Q 2772 3750 2511 3984 
Q 2250 4219 1831 4219 
Q 1534 4219 1204 4116 
Q 875 4013 500 3803 
L 500 4441 
Q 881 4594 1212 4672 
Q 1544 4750 1819 4750 
Q 2544 4750 2975 4387 
Q 3406 4025 3406 3419 
Q 3406 3131 3298 2873 
Q 3191 2616 2906 2266 
Q 2828 2175 2409 1742 
Q 1991 1309 1228 531 
z
" transform="scale(0.015625)"/>
       </defs>
       <use xlink:href="#DejaVuSans-2212"/>
       <use xlink:href="#DejaVuSans-32" transform="translate(83.789062 0)"/>
      </g>
     </g>
    </g>
    <g id="xtick_2">
     <g id="line2d_2">
      <g>
       <use xlink:href="#mc8c0bfb57c" x="130.951444" y="210.672" style="stroke: #000000; stroke-width: 0.8"/>
      </g>
     </g>
     <g id="text_2">
      <!-- −1 -->
      <g transform="translate(123.58035 225.270437) scale(0.1 -0.1)">
       <defs>
        <path id="DejaVuSans-31" d="M 794 531 
L 1825 531 
L 1825 4091 
L 703 3866 
L 703 4441 
L 1819 4666 
L 2450 4666 
L 2450 531 
L 3481 531 
L 3481 0 
L 794 0 
L 794 531 
z
" transform="scale(0.015625)"/>
       </defs>
       <use xlink:href="#DejaVuSans-2212"/>
       <use xlink:href="#DejaVuSans-31" transform="translate(83.789062 0)"/>
      </g>
     </g>
    </g>
    <g id="xtick_3">
     <g id="line2d_3">
      <g>
       <use xlink:href="#mc8c0bfb57c" x="173.689412" y="210.672" style="stroke: #000000; stroke-width: 0.8"/>
      </g>
     </g>
     <g id="text_3">
      <!-- 0 -->
      <g transform="translate(170.508162 225.270437) scale(0.1 -0.1)">
       <defs>
        <path id="DejaVuSans-30" d="M 2034 4250 
Q 1547 4250 1301 3770 
Q 1056 3291 1056 2328 
Q 1056 1369 1301 889 
Q 1547 409 2034 409 
Q 2525 409 2770 889 
Q 3016 1369 3016 2328 
Q 3016 3291 2770 3770 
Q 2525 4250 2034 4250 
z
M 2034 4750 
Q 2819 4750 3233 4129 
Q 3647 3509 3647 2328 
Q 3647 1150 3233 529 
Q 2819 -91 2034 -91 
Q 1250 -91 836 529 
Q 422 1150 422 2328 
Q 422 3509 836 4129 
Q 1250 4750 2034 4750 
z
" transform="scale(0.015625)"/>
       </defs>
       <use xlink:href="#DejaVuSans-30"/>
      </g>
     </g>
    </g>
    <g id="xtick_4">
     <g id="line2d_4">
      <g>
       <use xlink:href="#mc8c0bfb57c" x="216.42738" y="210.672" style="stroke: #000000; stroke-width: 0.8"/>
      </g>
     </g>
     <g id="text_4">
      <!-- 1 -->
      <g transform="translate(213.24613 225.270437) scale(0.1 -0.1)">
       <use xlink:href="#DejaVuSans-31"/>
      </g>
     </g>
    </g>
    <g id="xtick_5">
     <g id="line2d_5">
      <g>
       <use xlink:href="#mc8c0bfb57c" x="259.165348" y="210.672" style="stroke: #000000; stroke-width: 0.8"/>
      </g>
     </g>
     <g id="text_5">
      <!-- 2 -->
      <g transform="translate(255.984098 225.270437) scale(0.1 -0.1)">
       <use xlink:href="#DejaVuSans-32"/>
      </g>
     </g>
    </g>
    <g id="text_6">
     <!-- Noisy observation y -->
     <g transform="translate(124.227693 238.948562) scale(0.1 -0.1)">
      <defs>
       <path id="DejaVuSans-4e" d="M 628 4666 
L 1478 4666 
L 3547 763 
L 3547 4666 
L 4159 4666 
L 4159 0 
L 3309 0 
L 1241 3903 
L 1241 0 
L 628 0 
L 628 4666 
z
" transform="scale(0.015625)"/>
       <path id="DejaVuSans-6f" d="M 1959 3097 
Q 1497 3097 1228 2736 
Q 959 2375 959 1747 
Q 959 1119 1226 758 
Q 1494 397 1959 397 
Q 2419 397 2687 759 
Q 2956 1122 2956 1747 
Q 2956 2369 2687 2733 
Q 2419 3097 1959 3097 
z
M 1959 3584 
Q 2709 3584 3137 3096 
Q 3566 2609 3566 1747 
Q 3566 888 3137 398 
Q 2709 -91 1959 -91 
Q 1206 -91 779 398 
Q 353 888 353 1747 
Q 353 2609 779 3096 
Q 1206 3584 1959 3584 
z
" transform="scale(0.015625)"/>
       <path id="DejaVuSans-69" d="M 603 3500 
L 1178 3500 
L 1178 0 
L 603 0 
L 603 3500 
z
M 603 4863 
L 1178 4863 
L 1178 4134 
L 603 4134 
L 603 4863 
z
" transform="scale(0.015625)"/>
       <path id="DejaVuSans-73" d="M 2834 3397 
L 2834 2853 
Q 2591 2978 2328 3040 
Q 2066 3103 1784 3103 
Q 1356 3103 1142 2972 
Q 928 2841 928 2578 
Q 928 2378 1081 2264 
Q 1234 2150 1697 2047 
L 1894 2003 
Q 2506 1872 2764 1633 
Q 3022 1394 3022 966 
Q 3022 478 2636 193 
Q 2250 -91 1575 -91 
Q 1294 -91 989 -36 
Q 684 19 347 128 
L 347 722 
Q 666 556 975 473 
Q 1284 391 1588 391 
Q 1994 391 2212 530 
Q 2431 669 2431 922 
Q 2431 1156 2273 1281 
Q 2116 1406 1581 1522 
L 1381 1569 
Q 847 1681 609 1914 
Q 372 2147 372 2553 
Q 372 3047 722 3315 
Q 1072 3584 1716 3584 
Q 2034 3584 2315 3537 
Q 2597 3491 2834 3397 
z
" transform="scale(0.015625)"/>
       <path id="DejaVuSans-79" d="M 2059 -325 
Q 1816 -950 1584 -1140 
Q 1353 -1331 966 -1331 
L 506 -1331 
L 506 -850 
L 844 -850 
Q 1081 -850 1212 -737 
Q 1344 -625 1503 -206 
L 1606 56 
L 191 3500 
L 800 3500 
L 1894 763 
L 2988 3500 
L 3597 3500 
L 2059 -325 
z
" transform="scale(0.015625)"/>
       <path id="DejaVuSans-20" transform="scale(0.015625)"/>
       <path id="DejaVuSans-62" d="M 3116 1747 
Q 3116 2381 2855 2742 
Q 2594 3103 2138 3103 
Q 1681 3103 1420 2742 
Q 1159 2381 1159 1747 
Q 1159 1113 1420 752 
Q 1681 391 2138 391 
Q 2594 391 2855 752 
Q 3116 1113 3116 1747 
z
M 1159 2969 
Q 1341 3281 1617 3432 
Q 1894 3584 2278 3584 
Q 2916 3584 3314 3078 
Q 3713 2572 3713 1747 
Q 3713 922 3314 415 
Q 2916 -91 2278 -91 
Q 1894 -91 1617 61 
Q 1341 213 1159 525 
L 1159 0 
L 581 0 
L 581 4863 
L 1159 4863 
L 1159 2969 
z
" transform="scale(0.015625)"/>
       <path id="DejaVuSans-65" d="M 3597 1894 
L 3597 1613 
L 953 1613 
Q 991 1019 1311 708 
Q 1631 397 2203 397 
Q 2534 397 2845 478 
Q 3156 559 3463 722 
L 3463 178 
Q 3153 47 2828 -22 
Q 2503 -91 2169 -91 
Q 1331 -91 842 396 
Q 353 884 353 1716 
Q 353 2575 817 3079 
Q 1281 3584 2069 3584 
Q 2775 3584 3186 3129 
Q 3597 2675 3597 1894 
z
M 3022 2063 
Q 3016 2534 2758 2815 
Q 2500 3097 2075 3097 
Q 1594 3097 1305 2825 
Q 1016 2553 972 2059 
L 3022 2063 
z
" transform="scale(0.015625)"/>
       <path id="DejaVuSans-72" d="M 2631 2963 
Q 2534 3019 2420 3045 
Q 2306 3072 2169 3072 
Q 1681 3072 1420 2755 
Q 1159 2438 1159 1844 
L 1159 0 
L 581 0 
L 581 3500 
L 1159 3500 
L 1159 2956 
Q 1341 3275 1631 3429 
Q 1922 3584 2338 3584 
Q 2397 3584 2469 3576 
Q 2541 3569 2628 3553 
L 2631 2963 
z
" transform="scale(0.015625)"/>
       <path id="DejaVuSans-76" d="M 191 3500 
L 800 3500 
L 1894 563 
L 2988 3500 
L 3597 3500 
L 2284 0 
L 1503 0 
L 191 3500 
z
" transform="scale(0.015625)"/>
       <path id="DejaVuSans-61" d="M 2194 1759 
Q 1497 1759 1228 1600 
Q 959 1441 959 1056 
Q 959 750 1161 570 
Q 1363 391 1709 391 
Q 2188 391 2477 730 
Q 2766 1069 2766 1631 
L 2766 1759 
L 2194 1759 
z
M 3341 1997 
L 3341 0 
L 2766 0 
L 2766 531 
Q 2569 213 2275 61 
Q 1981 -91 1556 -91 
Q 1019 -91 701 211 
Q 384 513 384 1019 
Q 384 1609 779 1909 
Q 1175 2209 1959 2209 
L 2766 2209 
L 2766 2266 
Q 2766 2663 2505 2880 
Q 2244 3097 1772 3097 
Q 1472 3097 1187 3025 
Q 903 2953 641 2809 
L 641 3341 
Q 956 3463 1253 3523 
Q 1550 3584 1831 3584 
Q 2591 3584 2966 3190 
Q 3341 2797 3341 1997 
z
" transform="scale(0.015625)"/>
       <path id="DejaVuSans-74" d="M 1172 4494 
L 1172 3500 
L 2356 3500 
L 2356 3053 
L 1172 3053 
L 1172 1153 
Q 1172 725 1289 603 
Q 1406 481 1766 481 
L 2356 481 
L 2356 0 
L 1766 0 
Q 1100 0 847 248 
Q 594 497 594 1153 
L 594 3053 
L 172 3053 
L 172 3500 
L 594 3500 
L 594 4494 
L 1172 4494 
z
" transform="scale(0.015625)"/>
       <path id="DejaVuSans-6e" d="M 3513 2113 
L 3513 0 
L 2938 0 
L 2938 2094 
Q 2938 2591 2744 2837 
Q 2550 3084 2163 3084 
Q 1697 3084 1428 2787 
Q 1159 2491 1159 1978 
L 1159 0 
L 581 0 
L 581 3500 
L 1159 3500 
L 1159 2956 
Q 1366 3272 1645 3428 
Q 1925 3584 2291 3584 
Q 2894 3584 3203 3211 
Q 3513 2838 3513 2113 
z
" transform="scale(0.015625)"/>
      </defs>
      <use xlink:href="#DejaVuSans-4e"/>
      <use xlink:href="#DejaVuSans-6f" transform="translate(74.804688 0)"/>
      <use xlink:href="#DejaVuSans-69" transform="translate(135.986328 0)"/>
      <use xlink:href="#DejaVuSans-73" transform="translate(163.769531 0)"/>
      <use xlink:href="#DejaVuSans-79" transform="translate(215.869141 0)"/>
      <use xlink:href="#DejaVuSans-20" transform="translate(275.048828 0)"/>
      <use xlink:href="#DejaVuSans-6f" transform="translate(306.835938 0)"/>
      <use xlink:href="#DejaVuSans-62" transform="translate(368.017578 0)"/>
      <use xlink:href="#DejaVuSans-73" transform="translate(431.494141 0)"/>
      <use xlink:href="#DejaVuSans-65" transform="translate(483.59375 0)"/>
      <use xlink:href="#DejaVuSans-72" transform="translate(545.117188 0)"/>
      <use xlink:href="#DejaVuSans-76" transform="translate(586.230469 0)"/>
      <use xlink:href="#DejaVuSans-61" transform="translate(645.410156 0)"/>
      <use xlink:href="#DejaVuSans-74" transform="translate(706.689453 0)"/>
      <use xlink:href="#DejaVuSans-69" transform="translate(745.898438 0)"/>
      <use xlink:href="#DejaVuSans-6f" transform="translate(773.681641 0)"/>
      <use xlink:href="#DejaVuSans-6e" transform="translate(834.863281 0)"/>
      <use xlink:href="#DejaVuSans-20" transform="translate(898.242188 0)"/>
      <use xlink:href="#DejaVuSans-79" transform="translate(930.029297 0)"/>
     </g>
    </g>
   </g>
   <g id="matplotlib.axis_2">
    <g id="ytick_1">
     <g id="line2d_6">
      <defs>
       <path id="m47f7734686" d="M 0 0 
L -3.5 0 
" style="stroke: #000000; stroke-width: 0.8"/>
      </defs>
      <g>
       <use xlink:href="#m47f7734686" x="56.16" y="192.744801" style="stroke: #000000; stroke-width: 0.8"/>
      </g>
     </g>
     <g id="text_7">
      <!-- −1.0 -->
      <g transform="translate(24.877188 196.54402) scale(0.1 -0.1)">
       <defs>
        <path id="DejaVuSans-2e" d="M 684 794 
L 1344 794 
L 1344 0 
L 684 0 
L 684 794 
z
" transform="scale(0.015625)"/>
       </defs>
       <use xlink:href="#DejaVuSans-2212"/>
       <use xlink:href="#DejaVuSans-31" transform="translate(83.789062 0)"/>
       <use xlink:href="#DejaVuSans-2e" transform="translate(147.412109 0)"/>
       <use xlink:href="#DejaVuSans-30" transform="translate(179.199219 0)"/>
      </g>
     </g>
    </g>
    <g id="ytick_2">
     <g id="line2d_7">
      <g>
       <use xlink:href="#m47f7734686" x="56.16" y="163.4044" style="stroke: #000000; stroke-width: 0.8"/>
      </g>
     </g>
     <g id="text_8">
      <!-- −0.5 -->
      <g transform="translate(24.877188 167.203619) scale(0.1 -0.1)">
       <defs>
        <path id="DejaVuSans-35" d="M 691 4666 
L 3169 4666 
L 3169 4134 
L 1269 4134 
L 1269 2991 
Q 1406 3038 1543 3061 
Q 1681 3084 1819 3084 
Q 2600 3084 3056 2656 
Q 3513 2228 3513 1497 
Q 3513 744 3044 326 
Q 2575 -91 1722 -91 
Q 1428 -91 1123 -41 
Q 819 9 494 109 
L 494 744 
Q 775 591 1075 516 
Q 1375 441 1709 441 
Q 2250 441 2565 725 
Q 2881 1009 2881 1497 
Q 2881 1984 2565 2268 
Q 2250 2553 1709 2553 
Q 1456 2553 1204 2497 
Q 953 2441 691 2322 
L 691 4666 
z
" transform="scale(0.015625)"/>
       </defs>
       <use xlink:href="#DejaVuSans-2212"/>
       <use xlink:href="#DejaVuSans-30" transform="translate(83.789062 0)"/>
       <use xlink:href="#DejaVuSans-2e" transform="translate(147.412109 0)"/>
       <use xlink:href="#DejaVuSans-35" transform="translate(179.199219 0)"/>
      </g>
     </g>
    </g>
    <g id="ytick_3">
     <g id="line2d_8">
      <g>
       <use xlink:href="#m47f7734686" x="56.16" y="134.064" style="stroke: #000000; stroke-width: 0.8"/>
      </g>
     </g>
     <g id="text_9">
      <!-- 0.0 -->
      <g transform="translate(33.256875 137.863219) scale(0.1 -0.1)">
       <use xlink:href="#DejaVuSans-30"/>
       <use xlink:href="#DejaVuSans-2e" transform="translate(63.623047 0)"/>
       <use xlink:href="#DejaVuSans-30" transform="translate(95.410156 0)"/>
      </g>
     </g>
    </g>
    <g id="ytick_4">
     <g id="line2d_9">
      <g>
       <use xlink:href="#m47f7734686" x="56.16" y="104.7236" style="stroke: #000000; stroke-width: 0.8"/>
      </g>
     </g>
     <g id="text_10">
      <!-- 0.5 -->
      <g transform="translate(33.256875 108.522818) scale(0.1 -0.1)">
       <use xlink:href="#DejaVuSans-30"/>
       <use xlink:href="#DejaVuSans-2e" transform="translate(63.623047 0)"/>
       <use xlink:href="#DejaVuSans-35" transform="translate(95.410156 0)"/>
      </g>
     </g>
    </g>
    <g id="ytick_5">
     <g id="line2d_10">
      <g>
       <use xlink:href="#m47f7734686" x="56.16" y="75.383199" style="stroke: #000000; stroke-width: 0.8"/>
      </g>
     </g>
     <g id="text_11">
      <!-- 1.0 -->
      <g transform="translate(33.256875 79.182418) scale(0.1 -0.1)">
       <use xlink:href="#DejaVuSans-31"/>
       <use xlink:href="#DejaVuSans-2e" transform="translate(63.623047 0)"/>
       <use xlink:href="#DejaVuSans-30" transform="translate(95.410156 0)"/>
      </g>
     </g>
    </g>
    <g id="text_12">
     <!-- Predicted clean value -->
     <g transform="translate(18.7975 187.817906) rotate(-90) scale(0.1 -0.1)">
      <defs>
       <path id="DejaVuSans-50" d="M 1259 4147 
L 1259 2394 
L 2053 2394 
Q 2494 2394 2734 2622 
Q 2975 2850 2975 3272 
Q 2975 3691 2734 3919 
Q 2494 4147 2053 4147 
L 1259 4147 
z
M 628 4666 
L 2053 4666 
Q 2838 4666 3239 4311 
Q 3641 3956 3641 3272 
Q 3641 2581 3239 2228 
Q 2838 1875 2053 1875 
L 1259 1875 
L 1259 0 
L 628 0 
L 628 4666 
z
" transform="scale(0.015625)"/>
       <path id="DejaVuSans-64" d="M 2906 2969 
L 2906 4863 
L 3481 4863 
L 3481 0 
L 2906 0 
L 2906 525 
Q 2725 213 2448 61 
Q 2172 -91 1784 -91 
Q 1150 -91 751 415 
Q 353 922 353 1747 
Q 353 2572 751 3078 
Q 1150 3584 1784 3584 
Q 2172 3584 2448 3432 
Q 2725 3281 2906 2969 
z
M 947 1747 
Q 947 1113 1208 752 
Q 1469 391 1925 391 
Q 2381 391 2643 752 
Q 2906 1113 2906 1747 
Q 2906 2381 2643 2742 
Q 2381 3103 1925 3103 
Q 1469 3103 1208 2742 
Q 947 2381 947 1747 
z
" transform="scale(0.015625)"/>
       <path id="DejaVuSans-63" d="M 3122 3366 
L 3122 2828 
Q 2878 2963 2633 3030 
Q 2388 3097 2138 3097 
Q 1578 3097 1268 2742 
Q 959 2388 959 1747 
Q 959 1106 1268 751 
Q 1578 397 2138 397 
Q 2388 397 2633 464 
Q 2878 531 3122 666 
L 3122 134 
Q 2881 22 2623 -34 
Q 2366 -91 2075 -91 
Q 1284 -91 818 406 
Q 353 903 353 1747 
Q 353 2603 823 3093 
Q 1294 3584 2113 3584 
Q 2378 3584 2631 3529 
Q 2884 3475 3122 3366 
z
" transform="scale(0.015625)"/>
       <path id="DejaVuSans-6c" d="M 603 4863 
L 1178 4863 
L 1178 0 
L 603 0 
L 603 4863 
z
" transform="scale(0.015625)"/>
       <path id="DejaVuSans-75" d="M 544 1381 
L 544 3500 
L 1119 3500 
L 1119 1403 
Q 1119 906 1312 657 
Q 1506 409 1894 409 
Q 2359 409 2629 706 
Q 2900 1003 2900 1516 
L 2900 3500 
L 3475 3500 
L 3475 0 
L 2900 0 
L 2900 538 
Q 2691 219 2414 64 
Q 2138 -91 1772 -91 
Q 1169 -91 856 284 
Q 544 659 544 1381 
z
M 1991 3584 
L 1991 3584 
z
" transform="scale(0.015625)"/>
      </defs>
      <use xlink:href="#DejaVuSans-50"/>
      <use xlink:href="#DejaVuSans-72" transform="translate(58.552734 0)"/>
      <use xlink:href="#DejaVuSans-65" transform="translate(97.416016 0)"/>
      <use xlink:href="#DejaVuSans-64" transform="translate(158.939453 0)"/>
      <use xlink:href="#DejaVuSans-69" transform="translate(222.416016 0)"/>
      <use xlink:href="#DejaVuSans-63" transform="translate(250.199219 0)"/>
      <use xlink:href="#DejaVuSans-74" transform="translate(305.179688 0)"/>
      <use xlink:href="#DejaVuSans-65" transform="translate(344.388672 0)"/>
      <use xlink:href="#DejaVuSans-64" transform="translate(405.912109 0)"/>
      <use xlink:href="#DejaVuSans-20" transform="translate(469.388672 0)"/>
      <use xlink:href="#DejaVuSans-63" transform="translate(501.175781 0)"/>
      <use xlink:href="#DejaVuSans-6c" transform="translate(556.15625 0)"/>
      <use xlink:href="#DejaVuSans-65" transform="translate(583.939453 0)"/>
      <use xlink:href="#DejaVuSans-61" transform="translate(645.462891 0)"/>
      <use xlink:href="#DejaVuSans-6e" transform="translate(706.742188 0)"/>
      <use xlink:href="#DejaVuSans-20" transform="translate(770.121094 0)"/>
      <use xlink:href="#DejaVuSans-76" transform="translate(801.908203 0)"/>
      <use xlink:href="#DejaVuSans-61" transform="translate(861.087891 0)"/>
      <use xlink:href="#DejaVuSans-6c" transform="translate(922.367188 0)"/>
      <use xlink:href="#DejaVuSans-75" transform="translate(950.150391 0)"/>
      <use xlink:href="#DejaVuSans-65" transform="translate(1013.529297 0)"/>
     </g>
    </g>
   </g>
   <g id="line2d_11">
    <path d="M 66.844492 192.744801 
L 154.991551 192.652101 
L 158.196898 192.429993 
L 160.333797 192.035054 
L 161.936471 191.442277 
L 163.00492 190.796635 
L 164.073369 189.838971 
L 165.141818 188.428152 
L 166.210267 186.370509 
L 167.278717 183.413004 
L 168.347166 179.250137 
L 169.415615 173.560023 
L 170.484064 166.08643 
L 171.552513 156.768307 
L 173.155187 140.031141 
L 175.82631 111.359693 
L 176.894759 102.04157 
L 177.963209 94.567977 
L 179.031658 88.877863 
L 180.100107 84.714996 
L 181.168556 81.757491 
L 182.237005 79.699848 
L 183.305455 78.289029 
L 184.373904 77.331365 
L 185.442353 76.685723 
L 186.510802 76.252441 
L 188.113476 75.856047 
L 190.250374 75.592694 
L 193.989947 75.433473 
L 203.071765 75.384765 
L 280.534332 75.383199 
L 280.534332 75.383199 
" clip-path="url(#pfbf8540857)" style="fill: none; stroke: #404040; stroke-width: 1.6; stroke-linecap: square"/>
   </g>
   <g id="line2d_12">
    <path d="M 66.844492 193.05078 
L 154.991551 192.957597 
L 158.196898 192.734331 
L 160.333797 192.337332 
L 161.936471 191.741465 
L 163.00492 191.092456 
L 164.073369 190.129798 
L 165.141818 188.711622 
L 166.210267 186.64325 
L 167.278717 183.670324 
L 168.347166 179.485751 
L 169.415615 173.765967 
L 170.484064 166.253405 
L 171.552513 156.886694 
L 173.155187 140.062255 
L 175.82631 111.241306 
L 176.894759 101.874595 
L 177.963209 94.362033 
L 179.031658 88.642249 
L 180.100107 84.457676 
L 181.168556 81.48475 
L 182.237005 79.416378 
L 183.305455 77.998202 
L 184.373904 77.035544 
L 185.442353 76.386535 
L 186.510802 75.950995 
L 188.113476 75.552534 
L 190.250374 75.287807 
L 193.455722 75.139191 
L 200.934866 75.080781 
L 280.534332 75.07722 
L 280.534332 75.07722 
" clip-path="url(#pfbf8540857)" style="fill: none; stroke: #275c83; stroke-width: 1.6; stroke-linecap: square"/>
   </g>
   <g id="line2d_13">
    <path d="M 66.844492 192.590301 
L 154.991551 192.497845 
L 158.196898 192.276322 
L 160.333797 191.882423 
L 161.936471 191.291207 
L 163.00492 190.647265 
L 164.073369 189.692121 
L 165.141818 188.285017 
L 166.210267 186.232792 
L 167.278717 183.283074 
L 168.347166 179.131167 
L 169.415615 173.456035 
L 170.484064 166.002119 
L 171.552513 156.708529 
L 173.155187 140.01543 
L 175.82631 111.419471 
L 176.894759 102.125881 
L 177.963209 94.671965 
L 179.031658 88.996833 
L 180.100107 84.844926 
L 181.168556 81.895208 
L 182.237005 79.842983 
L 183.305455 78.435879 
L 184.373904 77.480735 
L 185.442353 76.836793 
L 186.510802 76.404653 
L 188.113476 76.009302 
L 190.250374 75.746642 
L 193.989947 75.587841 
L 203.071765 75.539261 
L 280.534332 75.537699 
L 280.534332 75.537699 
" clip-path="url(#pfbf8540857)" style="fill: none; stroke: #b55b24; stroke-width: 1.6; stroke-linecap: square"/>
   </g>
   <g id="line2d_14">
    <path d="M 56.16 75.383199 
L 291.218824 75.383199 
" clip-path="url(#pfbf8540857)" style="fill: none; stroke-dasharray: 0.8,1.32; stroke-dashoffset: 0; stroke: #b2b2b2; stroke-width: 0.8"/>
   </g>
   <g id="line2d_15">
    <path d="M 56.16 192.744801 
L 291.218824 192.744801 
" clip-path="url(#pfbf8540857)" style="fill: none; stroke-dasharray: 0.8,1.32; stroke-dashoffset: 0; stroke: #b2b2b2; stroke-width: 0.8"/>
   </g>
   <g id="patch_3">
    <path d="M 56.16 210.672 
L 56.16 57.456 
" style="fill: none; stroke: #000000; stroke-width: 0.8; stroke-linejoin: miter; stroke-linecap: square"/>
   </g>
   <g id="patch_4">
    <path d="M 56.16 210.672 
L 291.218824 210.672 
" style="fill: none; stroke: #000000; stroke-width: 0.8; stroke-linejoin: miter; stroke-linecap: square"/>
   </g>
   <g id="text_13">
    <!-- Two-point prior, sigma = 0.35 -->
    <g transform="translate(92.145896 51.456) scale(0.11 -0.11)">
     <defs>
      <path id="DejaVuSans-54" d="M -19 4666 
L 3928 4666 
L 3928 4134 
L 2272 4134 
L 2272 0 
L 1638 0 
L 1638 4134 
L -19 4134 
L -19 4666 
z
" transform="scale(0.015625)"/>
      <path id="DejaVuSans-77" d="M 269 3500 
L 844 3500 
L 1563 769 
L 2278 3500 
L 2956 3500 
L 3675 769 
L 4391 3500 
L 4966 3500 
L 4050 0 
L 3372 0 
L 2619 2869 
L 1863 0 
L 1184 0 
L 269 3500 
z
" transform="scale(0.015625)"/>
      <path id="DejaVuSans-2d" d="M 313 2009 
L 1997 2009 
L 1997 1497 
L 313 1497 
L 313 2009 
z
" transform="scale(0.015625)"/>
      <path id="DejaVuSans-70" d="M 1159 525 
L 1159 -1331 
L 581 -1331 
L 581 3500 
L 1159 3500 
L 1159 2969 
Q 1341 3281 1617 3432 
Q 1894 3584 2278 3584 
Q 2916 3584 3314 3078 
Q 3713 2572 3713 1747 
Q 3713 922 3314 415 
Q 2916 -91 2278 -91 
Q 1894 -91 1617 61 
Q 1341 213 1159 525 
z
M 3116 1747 
Q 3116 2381 2855 2742 
Q 2594 3103 2138 3103 
Q 1681 3103 1420 2742 
Q 1159 2381 1159 1747 
Q 1159 1113 1420 752 
Q 1681 391 2138 391 
Q 2594 391 2855 752 
Q 3116 1113 3116 1747 
z
" transform="scale(0.015625)"/>
      <path id="DejaVuSans-2c" d="M 750 794 
L 1409 794 
L 1409 256 
L 897 -744 
L 494 -744 
L 750 256 
L 750 794 
z
" transform="scale(0.015625)"/>
      <path id="DejaVuSans-67" d="M 2906 1791 
Q 2906 2416 2648 2759 
Q 2391 3103 1925 3103 
Q 1463 3103 1205 2759 
Q 947 2416 947 1791 
Q 947 1169 1205 825 
Q 1463 481 1925 481 
Q 2391 481 2648 825 
Q 2906 1169 2906 1791 
z
M 3481 434 
Q 3481 -459 3084 -895 
Q 2688 -1331 1869 -1331 
Q 1566 -1331 1297 -1286 
Q 1028 -1241 775 -1147 
L 775 -588 
Q 1028 -725 1275 -790 
Q 1522 -856 1778 -856 
Q 2344 -856 2625 -561 
Q 2906 -266 2906 331 
L 2906 616 
Q 2728 306 2450 153 
Q 2172 0 1784 0 
Q 1141 0 747 490 
Q 353 981 353 1791 
Q 353 2603 747 3093 
Q 1141 3584 1784 3584 
Q 2172 3584 2450 3431 
Q 2728 3278 2906 2969 
L 2906 3500 
L 3481 3500 
L 3481 434 
z
" transform="scale(0.015625)"/>
      <path id="DejaVuSans-6d" d="M 3328 2828 
Q 3544 3216 3844 3400 
Q 4144 3584 4550 3584 
Q 5097 3584 5394 3201 
Q 5691 2819 5691 2113 
L 5691 0 
L 5113 0 
L 5113 2094 
Q 5113 2597 4934 2840 
Q 4756 3084 4391 3084 
Q 3944 3084 3684 2787 
Q 3425 2491 3425 1978 
L 3425 0 
L 2847 0 
L 2847 2094 
Q 2847 2600 2669 2842 
Q 2491 3084 2119 3084 
Q 1678 3084 1418 2786 
Q 1159 2488 1159 1978 
L 1159 0 
L 581 0 
L 581 3500 
L 1159 3500 
L 1159 2956 
Q 1356 3278 1631 3431 
Q 1906 3584 2284 3584 
Q 2666 3584 2933 3390 
Q 3200 3197 3328 2828 
z
" transform="scale(0.015625)"/>
      <path id="DejaVuSans-3d" d="M 678 2906 
L 4684 2906 
L 4684 2381 
L 678 2381 
L 678 2906 
z
M 678 1631 
L 4684 1631 
L 4684 1100 
L 678 1100 
L 678 1631 
z
" transform="scale(0.015625)"/>
      <path id="DejaVuSans-33" d="M 2597 2516 
Q 3050 2419 3304 2112 
Q 3559 1806 3559 1356 
Q 3559 666 3084 287 
Q 2609 -91 1734 -91 
Q 1441 -91 1130 -33 
Q 819 25 488 141 
L 488 750 
Q 750 597 1062 519 
Q 1375 441 1716 441 
Q 2309 441 2620 675 
Q 2931 909 2931 1356 
Q 2931 1769 2642 2001 
Q 2353 2234 1838 2234 
L 1294 2234 
L 1294 2753 
L 1863 2753 
Q 2328 2753 2575 2939 
Q 2822 3125 2822 3475 
Q 2822 3834 2567 4026 
Q 2313 4219 1838 4219 
Q 1578 4219 1281 4162 
Q 984 4106 628 3988 
L 628 4550 
Q 988 4650 1302 4700 
Q 1616 4750 1894 4750 
Q 2613 4750 3031 4423 
Q 3450 4097 3450 3541 
Q 3450 3153 3228 2886 
Q 3006 2619 2597 2516 
z
" transform="scale(0.015625)"/>
     </defs>
     <use xlink:href="#DejaVuSans-54"/>
     <use xlink:href="#DejaVuSans-77" transform="translate(44.583984 0)"/>
     <use xlink:href="#DejaVuSans-6f" transform="translate(126.371094 0)"/>
     <use xlink:href="#DejaVuSans-2d" transform="translate(189.427734 0)"/>
     <use xlink:href="#DejaVuSans-70" transform="translate(225.511719 0)"/>
     <use xlink:href="#DejaVuSans-6f" transform="translate(288.988281 0)"/>
     <use xlink:href="#DejaVuSans-69" transform="translate(350.169922 0)"/>
     <use xlink:href="#DejaVuSans-6e" transform="translate(377.953125 0)"/>
     <use xlink:href="#DejaVuSans-74" transform="translate(441.332031 0)"/>
     <use xlink:href="#DejaVuSans-20" transform="translate(480.541016 0)"/>
     <use xlink:href="#DejaVuSans-70" transform="translate(512.328125 0)"/>
     <use xlink:href="#DejaVuSans-72" transform="translate(575.804688 0)"/>
     <use xlink:href="#DejaVuSans-69" transform="translate(616.917969 0)"/>
     <use xlink:href="#DejaVuSans-6f" transform="translate(644.701172 0)"/>
     <use xlink:href="#DejaVuSans-72" transform="translate(705.882812 0)"/>
     <use xlink:href="#DejaVuSans-2c" transform="translate(746.996094 0)"/>
     <use xlink:href="#DejaVuSans-20" transform="translate(778.783203 0)"/>
     <use xlink:href="#DejaVuSans-73" transform="translate(810.570312 0)"/>
     <use xlink:href="#DejaVuSans-69" transform="translate(862.669922 0)"/>
     <use xlink:href="#DejaVuSans-67" transform="translate(890.453125 0)"/>
     <use xlink:href="#DejaVuSans-6d" transform="translate(953.929688 0)"/>
     <use xlink:href="#DejaVuSans-61" transform="translate(1051.341797 0)"/>
     <use xlink:href="#DejaVuSans-20" transform="translate(1112.621094 0)"/>
     <use xlink:href="#DejaVuSans-3d" transform="translate(1144.408203 0)"/>
     <use xlink:href="#DejaVuSans-20" transform="translate(1228.197266 0)"/>
     <use xlink:href="#DejaVuSans-30" transform="translate(1259.984375 0)"/>
     <use xlink:href="#DejaVuSans-2e" transform="translate(1323.607422 0)"/>
     <use xlink:href="#DejaVuSans-33" transform="translate(1355.394531 0)"/>
     <use xlink:href="#DejaVuSans-35" transform="translate(1419.017578 0)"/>
    </g>
   </g>
  </g>
  <g id="axes_2">
   <g id="patch_5">
    <path d="M 338.230588 210.672 
L 573.289412 210.672 
L 573.289412 57.456 
L 338.230588 57.456 
z
" style="fill: #ffffff"/>
   </g>
   <g id="matplotlib.axis_3">
    <g id="xtick_6">
     <g id="line2d_16">
      <g>
       <use xlink:href="#mc8c0bfb57c" x="370.284064" y="210.672" style="stroke: #000000; stroke-width: 0.8"/>
      </g>
     </g>
     <g id="text_14">
      <!-- −2 -->
      <g transform="translate(362.91297 225.270437) scale(0.1 -0.1)">
       <use xlink:href="#DejaVuSans-2212"/>
       <use xlink:href="#DejaVuSans-32" transform="translate(83.789062 0)"/>
      </g>
     </g>
    </g>
    <g id="xtick_7">
     <g id="line2d_17">
      <g>
       <use xlink:href="#mc8c0bfb57c" x="413.022032" y="210.672" style="stroke: #000000; stroke-width: 0.8"/>
      </g>
     </g>
     <g id="text_15">
      <!-- −1 -->
      <g transform="translate(405.650938 225.270437) scale(0.1 -0.1)">
       <use xlink:href="#DejaVuSans-2212"/>
       <use xlink:href="#DejaVuSans-31" transform="translate(83.789062 0)"/>
      </g>
     </g>
    </g>
    <g id="xtick_8">
     <g id="line2d_18">
      <g>
       <use xlink:href="#mc8c0bfb57c" x="455.76" y="210.672" style="stroke: #000000; stroke-width: 0.8"/>
      </g>
     </g>
     <g id="text_16">
      <!-- 0 -->
      <g transform="translate(452.57875 225.270437) scale(0.1 -0.1)">
       <use xlink:href="#DejaVuSans-30"/>
      </g>
     </g>
    </g>
    <g id="xtick_9">
     <g id="line2d_19">
      <g>
       <use xlink:href="#mc8c0bfb57c" x="498.497968" y="210.672" style="stroke: #000000; stroke-width: 0.8"/>
      </g>
     </g>
     <g id="text_17">
      <!-- 1 -->
      <g transform="translate(495.316718 225.270437) scale(0.1 -0.1)">
       <use xlink:href="#DejaVuSans-31"/>
      </g>
     </g>
    </g>
    <g id="xtick_10">
     <g id="line2d_20">
      <g>
       <use xlink:href="#mc8c0bfb57c" x="541.235936" y="210.672" style="stroke: #000000; stroke-width: 0.8"/>
      </g>
     </g>
     <g id="text_18">
      <!-- 2 -->
      <g transform="translate(538.054686 225.270437) scale(0.1 -0.1)">
       <use xlink:href="#DejaVuSans-32"/>
      </g>
     </g>
    </g>
    <g id="text_19">
     <!-- Noisy observation y -->
     <g transform="translate(406.298281 238.948562) scale(0.1 -0.1)">
      <use xlink:href="#DejaVuSans-4e"/>
      <use xlink:href="#DejaVuSans-6f" transform="translate(74.804688 0)"/>
      <use xlink:href="#DejaVuSans-69" transform="translate(135.986328 0)"/>
      <use xlink:href="#DejaVuSans-73" transform="translate(163.769531 0)"/>
      <use xlink:href="#DejaVuSans-79" transform="translate(215.869141 0)"/>
      <use xlink:href="#DejaVuSans-20" transform="translate(275.048828 0)"/>
      <use xlink:href="#DejaVuSans-6f" transform="translate(306.835938 0)"/>
      <use xlink:href="#DejaVuSans-62" transform="translate(368.017578 0)"/>
      <use xlink:href="#DejaVuSans-73" transform="translate(431.494141 0)"/>
      <use xlink:href="#DejaVuSans-65" transform="translate(483.59375 0)"/>
      <use xlink:href="#DejaVuSans-72" transform="translate(545.117188 0)"/>
      <use xlink:href="#DejaVuSans-76" transform="translate(586.230469 0)"/>
      <use xlink:href="#DejaVuSans-61" transform="translate(645.410156 0)"/>
      <use xlink:href="#DejaVuSans-74" transform="translate(706.689453 0)"/>
      <use xlink:href="#DejaVuSans-69" transform="translate(745.898438 0)"/>
      <use xlink:href="#DejaVuSans-6f" transform="translate(773.681641 0)"/>
      <use xlink:href="#DejaVuSans-6e" transform="translate(834.863281 0)"/>
      <use xlink:href="#DejaVuSans-20" transform="translate(898.242188 0)"/>
      <use xlink:href="#DejaVuSans-79" transform="translate(930.029297 0)"/>
     </g>
    </g>
   </g>
   <g id="matplotlib.axis_4">
    <g id="ytick_6">
     <g id="line2d_21">
      <g>
       <use xlink:href="#m47f7734686" x="338.230588" y="192.744801" style="stroke: #000000; stroke-width: 0.8"/>
      </g>
     </g>
    </g>
    <g id="ytick_7">
     <g id="line2d_22">
      <g>
       <use xlink:href="#m47f7734686" x="338.230588" y="163.4044" style="stroke: #000000; stroke-width: 0.8"/>
      </g>
     </g>
    </g>
    <g id="ytick_8">
     <g id="line2d_23">
      <g>
       <use xlink:href="#m47f7734686" x="338.230588" y="134.064" style="stroke: #000000; stroke-width: 0.8"/>
      </g>
     </g>
    </g>
    <g id="ytick_9">
     <g id="line2d_24">
      <g>
       <use xlink:href="#m47f7734686" x="338.230588" y="104.7236" style="stroke: #000000; stroke-width: 0.8"/>
      </g>
     </g>
    </g>
    <g id="ytick_10">
     <g id="line2d_25">
      <g>
       <use xlink:href="#m47f7734686" x="338.230588" y="75.383199" style="stroke: #000000; stroke-width: 0.8"/>
      </g>
     </g>
    </g>
   </g>
   <g id="line2d_26">
    <path d="M 348.91508 192.69733 
L 370.818289 192.509686 
L 382.037005 192.212163 
L 390.050374 191.791272 
L 396.46107 191.228433 
L 401.269091 190.601276 
L 405.542888 189.834449 
L 409.28246 188.948818 
L 412.487807 187.986875 
L 415.693155 186.793938 
L 418.364278 185.588656 
L 421.035401 184.158072 
L 423.706524 182.468168 
L 426.377647 180.483175 
L 429.04877 178.166963 
L 431.719893 175.485073 
L 434.391016 172.407419 
L 437.062139 168.911637 
L 439.733262 164.986876 
L 442.404385 160.637672 
L 445.075508 155.887326 
L 448.280856 149.721242 
L 452.020428 142.037149 
L 464.307594 116.300751 
L 467.512941 110.294748 
L 470.184064 105.700751 
L 472.855187 101.519644 
L 475.52631 97.766876 
L 478.197433 94.44038 
L 480.868556 91.52423 
L 483.539679 88.992535 
L 486.210802 86.813092 
L 488.881925 84.950488 
L 491.553048 83.368532 
L 494.224171 82.032019 
L 497.429519 80.705851 
L 500.634866 79.634043 
L 504.374439 78.645338 
L 508.114011 77.881517 
L 512.387807 77.22151 
L 517.730053 76.633395 
L 524.140749 76.168683 
L 532.154118 75.821688 
L 543.372834 75.576668 
L 561.536471 75.434525 
L 562.60492 75.43067 
L 562.60492 75.43067 
" clip-path="url(#pb7e6297060)" style="fill: none; stroke: #404040; stroke-width: 1.6; stroke-linecap: square"/>
   </g>
   <g id="line2d_27">
    <path d="M 348.91508 203.707636 
L 369.215615 203.515583 
L 380.434332 203.201041 
L 388.447701 202.755774 
L 394.324171 202.220562 
L 399.132193 201.580508 
L 403.405989 200.796563 
L 407.145561 199.88931 
L 410.350909 198.901624 
L 413.556257 197.673485 
L 416.22738 196.428937 
L 418.898503 194.946896 
L 421.569626 193.189388 
L 424.240749 191.11549 
L 426.377647 189.199878 
L 428.514545 187.032444 
L 430.651444 184.59199 
L 432.788342 181.859137 
L 434.925241 178.817563 
L 437.062139 175.455409 
L 439.733262 170.793648 
L 442.404385 165.627739 
L 445.075508 159.985362 
L 448.280856 152.661396 
L 452.020428 143.534366 
L 464.307594 112.965125 
L 467.512941 105.831301 
L 470.184064 100.374633 
L 472.855187 95.408388 
L 475.52631 90.950916 
L 478.197433 86.999763 
L 480.334332 84.191111 
L 482.47123 81.679278 
L 484.608128 79.445524 
L 487.279251 77.01251 
L 489.950374 74.938612 
L 492.621497 73.181104 
L 495.29262 71.699063 
L 497.963743 70.454515 
L 501.169091 69.226376 
L 504.374439 68.23869 
L 508.114011 67.331437 
L 512.387807 66.547492 
L 517.195829 65.907438 
L 523.072299 65.372226 
L 530.017219 64.972506 
L 539.099037 64.677887 
L 552.454652 64.482364 
L 562.60492 64.420364 
L 562.60492 64.420364 
" clip-path="url(#pb7e6297060)" style="fill: none; stroke: #275c83; stroke-width: 1.6; stroke-linecap: square"/>
   </g>
   <g id="line2d_28">
    <path d="M 348.91508 184.200518 
L 371.886738 184.023765 
L 383.639679 183.729321 
L 391.653048 183.325313 
L 398.063743 182.785614 
L 403.405989 182.104834 
L 407.679786 181.343792 
L 411.419358 180.466924 
L 414.624706 179.517017 
L 417.830053 178.342634 
L 421.035401 176.898721 
L 423.706524 175.453709 
L 426.377647 173.756369 
L 429.04877 171.77581 
L 431.719893 169.482564 
L 434.391016 166.850907 
L 437.062139 163.861714 
L 439.733262 160.505707 
L 442.404385 156.786765 
L 445.609733 151.874266 
L 448.81508 146.53738 
L 453.088877 138.94859 
L 463.239144 120.675717 
L 466.444492 115.403188 
L 469.64984 110.569118 
L 472.320963 106.921718 
L 474.992086 103.639231 
L 477.663209 100.72265 
L 480.334332 98.160461 
L 483.005455 95.931969 
L 485.676578 94.010486 
L 488.347701 92.366095 
L 491.018824 90.967844 
L 494.224171 89.572201 
L 497.429519 88.438214 
L 501.169091 87.387335 
L 504.908663 86.572298 
L 509.18246 85.865788 
L 513.990481 85.287405 
L 519.866952 84.802687 
L 527.346096 84.418958 
L 537.496364 84.140898 
L 552.988877 83.968854 
L 562.60492 83.927482 
L 562.60492 83.927482 
" clip-path="url(#pb7e6297060)" style="fill: none; stroke: #b55b24; stroke-width: 1.6; stroke-linecap: square"/>
   </g>
   <g id="line2d_29">
    <path d="M 338.230588 75.383199 
L 573.289412 75.383199 
" clip-path="url(#pb7e6297060)" style="fill: none; stroke-dasharray: 0.8,1.32; stroke-dashoffset: 0; stroke: #b2b2b2; stroke-width: 0.8"/>
   </g>
   <g id="line2d_30">
    <path d="M 338.230588 192.744801 
L 573.289412 192.744801 
" clip-path="url(#pb7e6297060)" style="fill: none; stroke-dasharray: 0.8,1.32; stroke-dashoffset: 0; stroke: #b2b2b2; stroke-width: 0.8"/>
   </g>
   <g id="patch_6">
    <path d="M 338.230588 210.672 
L 338.230588 57.456 
" style="fill: none; stroke: #000000; stroke-width: 0.8; stroke-linejoin: miter; stroke-linecap: square"/>
   </g>
   <g id="patch_7">
    <path d="M 338.230588 210.672 
L 573.289412 210.672 
" style="fill: none; stroke: #000000; stroke-width: 0.8; stroke-linejoin: miter; stroke-linecap: square"/>
   </g>
   <g id="text_20">
    <!-- Two-point prior, sigma = 0.8 -->
    <g transform="translate(377.715859 51.456) scale(0.11 -0.11)">
     <defs>
      <path id="DejaVuSans-38" d="M 2034 2216 
Q 1584 2216 1326 1975 
Q 1069 1734 1069 1313 
Q 1069 891 1326 650 
Q 1584 409 2034 409 
Q 2484 409 2743 651 
Q 3003 894 3003 1313 
Q 3003 1734 2745 1975 
Q 2488 2216 2034 2216 
z
M 1403 2484 
Q 997 2584 770 2862 
Q 544 3141 544 3541 
Q 544 4100 942 4425 
Q 1341 4750 2034 4750 
Q 2731 4750 3128 4425 
Q 3525 4100 3525 3541 
Q 3525 3141 3298 2862 
Q 3072 2584 2669 2484 
Q 3125 2378 3379 2068 
Q 3634 1759 3634 1313 
Q 3634 634 3220 271 
Q 2806 -91 2034 -91 
Q 1263 -91 848 271 
Q 434 634 434 1313 
Q 434 1759 690 2068 
Q 947 2378 1403 2484 
z
M 1172 3481 
Q 1172 3119 1398 2916 
Q 1625 2713 2034 2713 
Q 2441 2713 2670 2916 
Q 2900 3119 2900 3481 
Q 2900 3844 2670 4047 
Q 2441 4250 2034 4250 
Q 1625 4250 1398 4047 
Q 1172 3844 1172 3481 
z
" transform="scale(0.015625)"/>
     </defs>
     <use xlink:href="#DejaVuSans-54"/>
     <use xlink:href="#DejaVuSans-77" transform="translate(44.583984 0)"/>
     <use xlink:href="#DejaVuSans-6f" transform="translate(126.371094 0)"/>
     <use xlink:href="#DejaVuSans-2d" transform="translate(189.427734 0)"/>
     <use xlink:href="#DejaVuSans-70" transform="translate(225.511719 0)"/>
     <use xlink:href="#DejaVuSans-6f" transform="translate(288.988281 0)"/>
     <use xlink:href="#DejaVuSans-69" transform="translate(350.169922 0)"/>
     <use xlink:href="#DejaVuSans-6e" transform="translate(377.953125 0)"/>
     <use xlink:href="#DejaVuSans-74" transform="translate(441.332031 0)"/>
     <use xlink:href="#DejaVuSans-20" transform="translate(480.541016 0)"/>
     <use xlink:href="#DejaVuSans-70" transform="translate(512.328125 0)"/>
     <use xlink:href="#DejaVuSans-72" transform="translate(575.804688 0)"/>
     <use xlink:href="#DejaVuSans-69" transform="translate(616.917969 0)"/>
     <use xlink:href="#DejaVuSans-6f" transform="translate(644.701172 0)"/>
     <use xlink:href="#DejaVuSans-72" transform="translate(705.882812 0)"/>
     <use xlink:href="#DejaVuSans-2c" transform="translate(746.996094 0)"/>
     <use xlink:href="#DejaVuSans-20" transform="translate(778.783203 0)"/>
     <use xlink:href="#DejaVuSans-73" transform="translate(810.570312 0)"/>
     <use xlink:href="#DejaVuSans-69" transform="translate(862.669922 0)"/>
     <use xlink:href="#DejaVuSans-67" transform="translate(890.453125 0)"/>
     <use xlink:href="#DejaVuSans-6d" transform="translate(953.929688 0)"/>
     <use xlink:href="#DejaVuSans-61" transform="translate(1051.341797 0)"/>
     <use xlink:href="#DejaVuSans-20" transform="translate(1112.621094 0)"/>
     <use xlink:href="#DejaVuSans-3d" transform="translate(1144.408203 0)"/>
     <use xlink:href="#DejaVuSans-20" transform="translate(1228.197266 0)"/>
     <use xlink:href="#DejaVuSans-30" transform="translate(1259.984375 0)"/>
     <use xlink:href="#DejaVuSans-2e" transform="translate(1323.607422 0)"/>
     <use xlink:href="#DejaVuSans-38" transform="translate(1355.394531 0)"/>
    </g>
   </g>
  </g>
  <g id="axes_3">
   <g id="patch_8">
    <path d="M 620.301176 210.672 
L 855.36 210.672 
L 855.36 57.456 
L 620.301176 57.456 
z
" style="fill: #ffffff"/>
   </g>
   <g id="matplotlib.axis_5">
    <g id="xtick_11">
     <g id="line2d_31">
      <g>
       <use xlink:href="#mc8c0bfb57c" x="652.354652" y="210.672" style="stroke: #000000; stroke-width: 0.8"/>
      </g>
     </g>
     <g id="text_21">
      <!-- −2 -->
      <g transform="translate(644.983559 225.270437) scale(0.1 -0.1)">
       <use xlink:href="#DejaVuSans-2212"/>
       <use xlink:href="#DejaVuSans-32" transform="translate(83.789062 0)"/>
      </g>
     </g>
    </g>
    <g id="xtick_12">
     <g id="line2d_32">
      <g>
       <use xlink:href="#mc8c0bfb57c" x="695.09262" y="210.672" style="stroke: #000000; stroke-width: 0.8"/>
      </g>
     </g>
     <g id="text_22">
      <!-- −1 -->
      <g transform="translate(687.721527 225.270437) scale(0.1 -0.1)">
       <use xlink:href="#DejaVuSans-2212"/>
       <use xlink:href="#DejaVuSans-31" transform="translate(83.789062 0)"/>
      </g>
     </g>
    </g>
    <g id="xtick_13">
     <g id="line2d_33">
      <g>
       <use xlink:href="#mc8c0bfb57c" x="737.830588" y="210.672" style="stroke: #000000; stroke-width: 0.8"/>
      </g>
     </g>
     <g id="text_23">
      <!-- 0 -->
      <g transform="translate(734.649338 225.270437) scale(0.1 -0.1)">
       <use xlink:href="#DejaVuSans-30"/>
      </g>
     </g>
    </g>
    <g id="xtick_14">
     <g id="line2d_34">
      <g>
       <use xlink:href="#mc8c0bfb57c" x="780.568556" y="210.672" style="stroke: #000000; stroke-width: 0.8"/>
      </g>
     </g>
     <g id="text_24">
      <!-- 1 -->
      <g transform="translate(777.387306 225.270437) scale(0.1 -0.1)">
       <use xlink:href="#DejaVuSans-31"/>
      </g>
     </g>
    </g>
    <g id="xtick_15">
     <g id="line2d_35">
      <g>
       <use xlink:href="#mc8c0bfb57c" x="823.306524" y="210.672" style="stroke: #000000; stroke-width: 0.8"/>
      </g>
     </g>
     <g id="text_25">
      <!-- 2 -->
      <g transform="translate(820.125274 225.270437) scale(0.1 -0.1)">
       <use xlink:href="#DejaVuSans-32"/>
      </g>
     </g>
    </g>
    <g id="text_26">
     <!-- Noisy observation y -->
     <g transform="translate(688.368869 238.948562) scale(0.1 -0.1)">
      <use xlink:href="#DejaVuSans-4e"/>
      <use xlink:href="#DejaVuSans-6f" transform="translate(74.804688 0)"/>
      <use xlink:href="#DejaVuSans-69" transform="translate(135.986328 0)"/>
      <use xlink:href="#DejaVuSans-73" transform="translate(163.769531 0)"/>
      <use xlink:href="#DejaVuSans-79" transform="translate(215.869141 0)"/>
      <use xlink:href="#DejaVuSans-20" transform="translate(275.048828 0)"/>
      <use xlink:href="#DejaVuSans-6f" transform="translate(306.835938 0)"/>
      <use xlink:href="#DejaVuSans-62" transform="translate(368.017578 0)"/>
      <use xlink:href="#DejaVuSans-73" transform="translate(431.494141 0)"/>
      <use xlink:href="#DejaVuSans-65" transform="translate(483.59375 0)"/>
      <use xlink:href="#DejaVuSans-72" transform="translate(545.117188 0)"/>
      <use xlink:href="#DejaVuSans-76" transform="translate(586.230469 0)"/>
      <use xlink:href="#DejaVuSans-61" transform="translate(645.410156 0)"/>
      <use xlink:href="#DejaVuSans-74" transform="translate(706.689453 0)"/>
      <use xlink:href="#DejaVuSans-69" transform="translate(745.898438 0)"/>
      <use xlink:href="#DejaVuSans-6f" transform="translate(773.681641 0)"/>
      <use xlink:href="#DejaVuSans-6e" transform="translate(834.863281 0)"/>
      <use xlink:href="#DejaVuSans-20" transform="translate(898.242188 0)"/>
      <use xlink:href="#DejaVuSans-79" transform="translate(930.029297 0)"/>
     </g>
    </g>
   </g>
   <g id="matplotlib.axis_6">
    <g id="ytick_11">
     <g id="line2d_36">
      <g>
       <use xlink:href="#m47f7734686" x="620.301176" y="192.744801" style="stroke: #000000; stroke-width: 0.8"/>
      </g>
     </g>
    </g>
    <g id="ytick_12">
     <g id="line2d_37">
      <g>
       <use xlink:href="#m47f7734686" x="620.301176" y="163.4044" style="stroke: #000000; stroke-width: 0.8"/>
      </g>
     </g>
    </g>
    <g id="ytick_13">
     <g id="line2d_38">
      <g>
       <use xlink:href="#m47f7734686" x="620.301176" y="134.064" style="stroke: #000000; stroke-width: 0.8"/>
      </g>
     </g>
    </g>
    <g id="ytick_14">
     <g id="line2d_39">
      <g>
       <use xlink:href="#m47f7734686" x="620.301176" y="104.7236" style="stroke: #000000; stroke-width: 0.8"/>
      </g>
     </g>
    </g>
    <g id="ytick_15">
     <g id="line2d_40">
      <g>
       <use xlink:href="#m47f7734686" x="620.301176" y="75.383199" style="stroke: #000000; stroke-width: 0.8"/>
      </g>
     </g>
    </g>
   </g>
   <g id="line2d_41">
    <path d="M 630.985668 178.166963 
L 639.533262 176.052238 
L 647.546631 173.842992 
L 655.56 171.40334 
L 663.573369 168.725618 
L 671.586738 165.806181 
L 679.600107 162.646318 
L 687.613476 159.253091 
L 696.16107 155.391746 
L 705.242888 151.043012 
L 715.393155 145.932232 
L 728.214545 139.208253 
L 763.473369 120.557105 
L 773.623636 115.523437 
L 782.705455 111.260327 
L 791.253048 107.490328 
L 799.266417 104.1892 
L 807.279786 101.125 
L 815.293155 98.302391 
L 823.306524 95.720581 
L 831.319893 93.374204 
L 839.333262 91.254253 
L 844.675508 89.961037 
L 844.675508 89.961037 
" clip-path="url(#pa68b1f8862)" style="fill: none; stroke: #404040; stroke-width: 1.6; stroke-linecap: square"/>
   </g>
   <g id="line2d_42">
    <path d="M 630.985668 192.800005 
L 638.464813 190.353476 
L 645.409733 187.85545 
L 652.354652 185.129487 
L 659.299572 182.167939 
L 666.244492 178.965893 
L 673.189412 175.52178 
L 680.134332 171.837969 
L 687.613476 167.610648 
L 695.09262 163.128147 
L 703.105989 158.06708 
L 712.187807 152.052385 
L 722.872299 144.682582 
L 738.364813 133.682408 
L 756.528449 120.836697 
L 766.678717 113.922484 
L 775.760535 108.006409 
L 783.773904 103.048767 
L 791.253048 98.673377 
L 798.732193 94.560351 
L 805.677112 90.986603 
L 812.622032 87.65417 
L 819.566952 84.563535 
L 826.511872 81.711509 
L 833.456791 79.091841 
L 840.401711 76.695824 
L 844.675508 75.327995 
L 844.675508 75.327995 
" clip-path="url(#pa68b1f8862)" style="fill: none; stroke: #275c83; stroke-width: 1.6; stroke-linecap: square"/>
   </g>
   <g id="line2d_43">
    <path d="M 630.985668 158.805384 
L 642.204385 157.219938 
L 652.888877 155.481925 
L 663.039144 153.613225 
L 673.189412 151.527272 
L 683.873904 149.099095 
L 694.558396 146.444954 
L 706.311337 143.29369 
L 720.201176 139.322964 
L 741.57016 132.939262 
L 762.40492 126.791871 
L 775.760535 123.087754 
L 787.513476 120.064532 
L 798.197968 117.543831 
L 808.88246 115.257943 
L 819.032727 113.309455 
L 829.717219 111.490285 
L 840.401711 109.898787 
L 844.675508 109.322616 
L 844.675508 109.322616 
" clip-path="url(#pa68b1f8862)" style="fill: none; stroke: #b55b24; stroke-width: 1.6; stroke-linecap: square"/>
   </g>
   <g id="line2d_44">
    <path d="M 620.301176 75.383199 
L 855.36 75.383199 
" clip-path="url(#pa68b1f8862)" style="fill: none; stroke-dasharray: 0.8,1.32; stroke-dashoffset: 0; stroke: #b2b2b2; stroke-width: 0.8"/>
   </g>
   <g id="line2d_45">
    <path d="M 620.301176 192.744801 
L 855.36 192.744801 
" clip-path="url(#pa68b1f8862)" style="fill: none; stroke-dasharray: 0.8,1.32; stroke-dashoffset: 0; stroke: #b2b2b2; stroke-width: 0.8"/>
   </g>
   <g id="patch_9">
    <path d="M 620.301176 210.672 
L 620.301176 57.456 
" style="fill: none; stroke: #000000; stroke-width: 0.8; stroke-linejoin: miter; stroke-linecap: square"/>
   </g>
   <g id="patch_10">
    <path d="M 620.301176 210.672 
L 855.36 210.672 
" style="fill: none; stroke: #000000; stroke-width: 0.8; stroke-linejoin: miter; stroke-linecap: square"/>
   </g>
   <g id="text_27">
    <!-- Two-point prior, sigma = 1.6 -->
    <g transform="translate(659.786448 51.456) scale(0.11 -0.11)">
     <defs>
      <path id="DejaVuSans-36" d="M 2113 2584 
Q 1688 2584 1439 2293 
Q 1191 2003 1191 1497 
Q 1191 994 1439 701 
Q 1688 409 2113 409 
Q 2538 409 2786 701 
Q 3034 994 3034 1497 
Q 3034 2003 2786 2293 
Q 2538 2584 2113 2584 
z
M 3366 4563 
L 3366 3988 
Q 3128 4100 2886 4159 
Q 2644 4219 2406 4219 
Q 1781 4219 1451 3797 
Q 1122 3375 1075 2522 
Q 1259 2794 1537 2939 
Q 1816 3084 2150 3084 
Q 2853 3084 3261 2657 
Q 3669 2231 3669 1497 
Q 3669 778 3244 343 
Q 2819 -91 2113 -91 
Q 1303 -91 875 529 
Q 447 1150 447 2328 
Q 447 3434 972 4092 
Q 1497 4750 2381 4750 
Q 2619 4750 2861 4703 
Q 3103 4656 3366 4563 
z
" transform="scale(0.015625)"/>
     </defs>
     <use xlink:href="#DejaVuSans-54"/>
     <use xlink:href="#DejaVuSans-77" transform="translate(44.583984 0)"/>
     <use xlink:href="#DejaVuSans-6f" transform="translate(126.371094 0)"/>
     <use xlink:href="#DejaVuSans-2d" transform="translate(189.427734 0)"/>
     <use xlink:href="#DejaVuSans-70" transform="translate(225.511719 0)"/>
     <use xlink:href="#DejaVuSans-6f" transform="translate(288.988281 0)"/>
     <use xlink:href="#DejaVuSans-69" transform="translate(350.169922 0)"/>
     <use xlink:href="#DejaVuSans-6e" transform="translate(377.953125 0)"/>
     <use xlink:href="#DejaVuSans-74" transform="translate(441.332031 0)"/>
     <use xlink:href="#DejaVuSans-20" transform="translate(480.541016 0)"/>
     <use xlink:href="#DejaVuSans-70" transform="translate(512.328125 0)"/>
     <use xlink:href="#DejaVuSans-72" transform="translate(575.804688 0)"/>
     <use xlink:href="#DejaVuSans-69" transform="translate(616.917969 0)"/>
     <use xlink:href="#DejaVuSans-6f" transform="translate(644.701172 0)"/>
     <use xlink:href="#DejaVuSans-72" transform="translate(705.882812 0)"/>
     <use xlink:href="#DejaVuSans-2c" transform="translate(746.996094 0)"/>
     <use xlink:href="#DejaVuSans-20" transform="translate(778.783203 0)"/>
     <use xlink:href="#DejaVuSans-73" transform="translate(810.570312 0)"/>
     <use xlink:href="#DejaVuSans-69" transform="translate(862.669922 0)"/>
     <use xlink:href="#DejaVuSans-67" transform="translate(890.453125 0)"/>
     <use xlink:href="#DejaVuSans-6d" transform="translate(953.929688 0)"/>
     <use xlink:href="#DejaVuSans-61" transform="translate(1051.341797 0)"/>
     <use xlink:href="#DejaVuSans-20" transform="translate(1112.621094 0)"/>
     <use xlink:href="#DejaVuSans-3d" transform="translate(1144.408203 0)"/>
     <use xlink:href="#DejaVuSans-20" transform="translate(1228.197266 0)"/>
     <use xlink:href="#DejaVuSans-31" transform="translate(1259.984375 0)"/>
     <use xlink:href="#DejaVuSans-2e" transform="translate(1323.607422 0)"/>
     <use xlink:href="#DejaVuSans-36" transform="translate(1355.394531 0)"/>
    </g>
   </g>
  </g>
  <g id="text_28">
   <!-- Opposite risk changes have opposite actions; neither is universal density smoothing -->
   <g transform="translate(199.664531 13.830281) scale(0.11 -0.11)">
    <defs>
     <path id="DejaVuSans-4f" d="M 2522 4238 
Q 1834 4238 1429 3725 
Q 1025 3213 1025 2328 
Q 1025 1447 1429 934 
Q 1834 422 2522 422 
Q 3209 422 3611 934 
Q 4013 1447 4013 2328 
Q 4013 3213 3611 3725 
Q 3209 4238 2522 4238 
z
M 2522 4750 
Q 3503 4750 4090 4092 
Q 4678 3434 4678 2328 
Q 4678 1225 4090 567 
Q 3503 -91 2522 -91 
Q 1538 -91 948 565 
Q 359 1222 359 2328 
Q 359 3434 948 4092 
Q 1538 4750 2522 4750 
z
" transform="scale(0.015625)"/>
     <path id="DejaVuSans-6b" d="M 581 4863 
L 1159 4863 
L 1159 1991 
L 2875 3500 
L 3609 3500 
L 1753 1863 
L 3688 0 
L 2938 0 
L 1159 1709 
L 1159 0 
L 581 0 
L 581 4863 
z
" transform="scale(0.015625)"/>
     <path id="DejaVuSans-68" d="M 3513 2113 
L 3513 0 
L 2938 0 
L 2938 2094 
Q 2938 2591 2744 2837 
Q 2550 3084 2163 3084 
Q 1697 3084 1428 2787 
Q 1159 2491 1159 1978 
L 1159 0 
L 581 0 
L 581 4863 
L 1159 4863 
L 1159 2956 
Q 1366 3272 1645 3428 
Q 1925 3584 2291 3584 
Q 2894 3584 3203 3211 
Q 3513 2838 3513 2113 
z
" transform="scale(0.015625)"/>
     <path id="DejaVuSans-3b" d="M 750 3309 
L 1409 3309 
L 1409 2516 
L 750 2516 
L 750 3309 
z
M 750 794 
L 1409 794 
L 1409 256 
L 897 -744 
L 494 -744 
L 750 256 
L 750 794 
z
" transform="scale(0.015625)"/>
    </defs>
    <use xlink:href="#DejaVuSans-4f"/>
    <use xlink:href="#DejaVuSans-70" transform="translate(78.710938 0)"/>
    <use xlink:href="#DejaVuSans-70" transform="translate(142.1875 0)"/>
    <use xlink:href="#DejaVuSans-6f" transform="translate(205.664062 0)"/>
    <use xlink:href="#DejaVuSans-73" transform="translate(266.845703 0)"/>
    <use xlink:href="#DejaVuSans-69" transform="translate(318.945312 0)"/>
    <use xlink:href="#DejaVuSans-74" transform="translate(346.728516 0)"/>
    <use xlink:href="#DejaVuSans-65" transform="translate(385.9375 0)"/>
    <use xlink:href="#DejaVuSans-20" transform="translate(447.460938 0)"/>
    <use xlink:href="#DejaVuSans-72" transform="translate(479.248047 0)"/>
    <use xlink:href="#DejaVuSans-69" transform="translate(520.361328 0)"/>
    <use xlink:href="#DejaVuSans-73" transform="translate(548.144531 0)"/>
    <use xlink:href="#DejaVuSans-6b" transform="translate(600.244141 0)"/>
    <use xlink:href="#DejaVuSans-20" transform="translate(658.154297 0)"/>
    <use xlink:href="#DejaVuSans-63" transform="translate(689.941406 0)"/>
    <use xlink:href="#DejaVuSans-68" transform="translate(744.921875 0)"/>
    <use xlink:href="#DejaVuSans-61" transform="translate(808.300781 0)"/>
    <use xlink:href="#DejaVuSans-6e" transform="translate(869.580078 0)"/>
    <use xlink:href="#DejaVuSans-67" transform="translate(932.958984 0)"/>
    <use xlink:href="#DejaVuSans-65" transform="translate(996.435547 0)"/>
    <use xlink:href="#DejaVuSans-73" transform="translate(1057.958984 0)"/>
    <use xlink:href="#DejaVuSans-20" transform="translate(1110.058594 0)"/>
    <use xlink:href="#DejaVuSans-68" transform="translate(1141.845703 0)"/>
    <use xlink:href="#DejaVuSans-61" transform="translate(1205.224609 0)"/>
    <use xlink:href="#DejaVuSans-76" transform="translate(1266.503906 0)"/>
    <use xlink:href="#DejaVuSans-65" transform="translate(1325.683594 0)"/>
    <use xlink:href="#DejaVuSans-20" transform="translate(1387.207031 0)"/>
    <use xlink:href="#DejaVuSans-6f" transform="translate(1418.994141 0)"/>
    <use xlink:href="#DejaVuSans-70" transform="translate(1480.175781 0)"/>
    <use xlink:href="#DejaVuSans-70" transform="translate(1543.652344 0)"/>
    <use xlink:href="#DejaVuSans-6f" transform="translate(1607.128906 0)"/>
    <use xlink:href="#DejaVuSans-73" transform="translate(1668.310547 0)"/>
    <use xlink:href="#DejaVuSans-69" transform="translate(1720.410156 0)"/>
    <use xlink:href="#DejaVuSans-74" transform="translate(1748.193359 0)"/>
    <use xlink:href="#DejaVuSans-65" transform="translate(1787.402344 0)"/>
    <use xlink:href="#DejaVuSans-20" transform="translate(1848.925781 0)"/>
    <use xlink:href="#DejaVuSans-61" transform="translate(1880.712891 0)"/>
    <use xlink:href="#DejaVuSans-63" transform="translate(1941.992188 0)"/>
    <use xlink:href="#DejaVuSans-74" transform="translate(1996.972656 0)"/>
    <use xlink:href="#DejaVuSans-69" transform="translate(2036.181641 0)"/>
    <use xlink:href="#DejaVuSans-6f" transform="translate(2063.964844 0)"/>
    <use xlink:href="#DejaVuSans-6e" transform="translate(2125.146484 0)"/>
    <use xlink:href="#DejaVuSans-73" transform="translate(2188.525391 0)"/>
    <use xlink:href="#DejaVuSans-3b" transform="translate(2240.625 0)"/>
    <use xlink:href="#DejaVuSans-20" transform="translate(2274.316406 0)"/>
    <use xlink:href="#DejaVuSans-6e" transform="translate(2306.103516 0)"/>
    <use xlink:href="#DejaVuSans-65" transform="translate(2369.482422 0)"/>
    <use xlink:href="#DejaVuSans-69" transform="translate(2431.005859 0)"/>
    <use xlink:href="#DejaVuSans-74" transform="translate(2458.789062 0)"/>
    <use xlink:href="#DejaVuSans-68" transform="translate(2497.998047 0)"/>
    <use xlink:href="#DejaVuSans-65" transform="translate(2561.376953 0)"/>
    <use xlink:href="#DejaVuSans-72" transform="translate(2622.900391 0)"/>
    <use xlink:href="#DejaVuSans-20" transform="translate(2664.013672 0)"/>
    <use xlink:href="#DejaVuSans-69" transform="translate(2695.800781 0)"/>
    <use xlink:href="#DejaVuSans-73" transform="translate(2723.583984 0)"/>
    <use xlink:href="#DejaVuSans-20" transform="translate(2775.683594 0)"/>
    <use xlink:href="#DejaVuSans-75" transform="translate(2807.470703 0)"/>
    <use xlink:href="#DejaVuSans-6e" transform="translate(2870.849609 0)"/>
    <use xlink:href="#DejaVuSans-69" transform="translate(2934.228516 0)"/>
    <use xlink:href="#DejaVuSans-76" transform="translate(2962.011719 0)"/>
    <use xlink:href="#DejaVuSans-65" transform="translate(3021.191406 0)"/>
    <use xlink:href="#DejaVuSans-72" transform="translate(3082.714844 0)"/>
    <use xlink:href="#DejaVuSans-73" transform="translate(3123.828125 0)"/>
    <use xlink:href="#DejaVuSans-61" transform="translate(3175.927734 0)"/>
    <use xlink:href="#DejaVuSans-6c" transform="translate(3237.207031 0)"/>
    <use xlink:href="#DejaVuSans-20" transform="translate(3264.990234 0)"/>
    <use xlink:href="#DejaVuSans-64" transform="translate(3296.777344 0)"/>
    <use xlink:href="#DejaVuSans-65" transform="translate(3360.253906 0)"/>
    <use xlink:href="#DejaVuSans-6e" transform="translate(3421.777344 0)"/>
    <use xlink:href="#DejaVuSans-73" transform="translate(3485.15625 0)"/>
    <use xlink:href="#DejaVuSans-69" transform="translate(3537.255859 0)"/>
    <use xlink:href="#DejaVuSans-74" transform="translate(3565.039062 0)"/>
    <use xlink:href="#DejaVuSans-79" transform="translate(3604.248047 0)"/>
    <use xlink:href="#DejaVuSans-20" transform="translate(3663.427734 0)"/>
    <use xlink:href="#DejaVuSans-73" transform="translate(3695.214844 0)"/>
    <use xlink:href="#DejaVuSans-6d" transform="translate(3747.314453 0)"/>
    <use xlink:href="#DejaVuSans-6f" transform="translate(3844.726562 0)"/>
    <use xlink:href="#DejaVuSans-6f" transform="translate(3905.908203 0)"/>
    <use xlink:href="#DejaVuSans-74" transform="translate(3967.089844 0)"/>
    <use xlink:href="#DejaVuSans-68" transform="translate(4006.298828 0)"/>
    <use xlink:href="#DejaVuSans-69" transform="translate(4069.677734 0)"/>
    <use xlink:href="#DejaVuSans-6e" transform="translate(4097.460938 0)"/>
    <use xlink:href="#DejaVuSans-67" transform="translate(4160.839844 0)"/>
   </g>
  </g>
  <g id="legend_1">
   <g id="patch_11">
    <path d="M 168.581953 266.364 
L 695.418047 266.364 
Q 697.218047 266.364 697.218047 264.564 
L 697.218047 252.253687 
Q 697.218047 250.453687 695.418047 250.453687 
L 168.581953 250.453687 
Q 166.781953 250.453687 166.781953 252.253687 
L 166.781953 264.564 
Q 166.781953 266.364 168.581953 266.364 
z
" style="fill: #ffffff; opacity: 0.8; stroke: #cccccc; stroke-linejoin: miter"/>
   </g>
   <g id="line2d_46">
    <path d="M 170.381953 257.742281 
L 179.381953 257.742281 
L 188.381953 257.742281 
" style="fill: none; stroke: #404040; stroke-width: 1.6; stroke-linecap: square"/>
   </g>
   <g id="text_29">
    <!-- Strong = exact posterior mean -->
    <g transform="translate(195.581953 260.892281) scale(0.09 -0.09)">
     <defs>
      <path id="DejaVuSans-53" d="M 3425 4513 
L 3425 3897 
Q 3066 4069 2747 4153 
Q 2428 4238 2131 4238 
Q 1616 4238 1336 4038 
Q 1056 3838 1056 3469 
Q 1056 3159 1242 3001 
Q 1428 2844 1947 2747 
L 2328 2669 
Q 3034 2534 3370 2195 
Q 3706 1856 3706 1288 
Q 3706 609 3251 259 
Q 2797 -91 1919 -91 
Q 1588 -91 1214 -16 
Q 841 59 441 206 
L 441 856 
Q 825 641 1194 531 
Q 1563 422 1919 422 
Q 2459 422 2753 634 
Q 3047 847 3047 1241 
Q 3047 1584 2836 1778 
Q 2625 1972 2144 2069 
L 1759 2144 
Q 1053 2284 737 2584 
Q 422 2884 422 3419 
Q 422 4038 858 4394 
Q 1294 4750 2059 4750 
Q 2388 4750 2728 4690 
Q 3069 4631 3425 4513 
z
" transform="scale(0.015625)"/>
      <path id="DejaVuSans-78" d="M 3513 3500 
L 2247 1797 
L 3578 0 
L 2900 0 
L 1881 1375 
L 863 0 
L 184 0 
L 1544 1831 
L 300 3500 
L 978 3500 
L 1906 2253 
L 2834 3500 
L 3513 3500 
z
" transform="scale(0.015625)"/>
     </defs>
     <use xlink:href="#DejaVuSans-53"/>
     <use xlink:href="#DejaVuSans-74" transform="translate(63.476562 0)"/>
     <use xlink:href="#DejaVuSans-72" transform="translate(102.685547 0)"/>
     <use xlink:href="#DejaVuSans-6f" transform="translate(141.548828 0)"/>
     <use xlink:href="#DejaVuSans-6e" transform="translate(202.730469 0)"/>
     <use xlink:href="#DejaVuSans-67" transform="translate(266.109375 0)"/>
     <use xlink:href="#DejaVuSans-20" transform="translate(329.585938 0)"/>
     <use xlink:href="#DejaVuSans-3d" transform="translate(361.373047 0)"/>
     <use xlink:href="#DejaVuSans-20" transform="translate(445.162109 0)"/>
     <use xlink:href="#DejaVuSans-65" transform="translate(476.949219 0)"/>
     <use xlink:href="#DejaVuSans-78" transform="translate(536.722656 0)"/>
     <use xlink:href="#DejaVuSans-61" transform="translate(595.902344 0)"/>
     <use xlink:href="#DejaVuSans-63" transform="translate(657.181641 0)"/>
     <use xlink:href="#DejaVuSans-74" transform="translate(712.162109 0)"/>
     <use xlink:href="#DejaVuSans-20" transform="translate(751.371094 0)"/>
     <use xlink:href="#DejaVuSans-70" transform="translate(783.158203 0)"/>
     <use xlink:href="#DejaVuSans-6f" transform="translate(846.634766 0)"/>
     <use xlink:href="#DejaVuSans-73" transform="translate(907.816406 0)"/>
     <use xlink:href="#DejaVuSans-74" transform="translate(959.916016 0)"/>
     <use xlink:href="#DejaVuSans-65" transform="translate(999.125 0)"/>
     <use xlink:href="#DejaVuSans-72" transform="translate(1060.648438 0)"/>
     <use xlink:href="#DejaVuSans-69" transform="translate(1101.761719 0)"/>
     <use xlink:href="#DejaVuSans-6f" transform="translate(1129.544922 0)"/>
     <use xlink:href="#DejaVuSans-72" transform="translate(1190.726562 0)"/>
     <use xlink:href="#DejaVuSans-20" transform="translate(1231.839844 0)"/>
     <use xlink:href="#DejaVuSans-6d" transform="translate(1263.626953 0)"/>
     <use xlink:href="#DejaVuSans-65" transform="translate(1361.039062 0)"/>
     <use xlink:href="#DejaVuSans-61" transform="translate(1422.5625 0)"/>
     <use xlink:href="#DejaVuSans-6e" transform="translate(1483.841797 0)"/>
    </g>
   </g>
   <g id="line2d_47">
    <path d="M 352.833047 257.742281 
L 361.833047 257.742281 
L 370.833047 257.742281 
" style="fill: none; stroke: #275c83; stroke-width: 1.6; stroke-linecap: square"/>
   </g>
   <g id="text_30">
    <!-- Subtract consistency reference -->
    <g transform="translate(378.033047 260.892281) scale(0.09 -0.09)">
     <defs>
      <path id="DejaVuSans-66" d="M 2375 4863 
L 2375 4384 
L 1825 4384 
Q 1516 4384 1395 4259 
Q 1275 4134 1275 3809 
L 1275 3500 
L 2222 3500 
L 2222 3053 
L 1275 3053 
L 1275 0 
L 697 0 
L 697 3053 
L 147 3053 
L 147 3500 
L 697 3500 
L 697 3744 
Q 697 4328 969 4595 
Q 1241 4863 1831 4863 
L 2375 4863 
z
" transform="scale(0.015625)"/>
     </defs>
     <use xlink:href="#DejaVuSans-53"/>
     <use xlink:href="#DejaVuSans-75" transform="translate(63.476562 0)"/>
     <use xlink:href="#DejaVuSans-62" transform="translate(126.855469 0)"/>
     <use xlink:href="#DejaVuSans-74" transform="translate(190.332031 0)"/>
     <use xlink:href="#DejaVuSans-72" transform="translate(229.541016 0)"/>
     <use xlink:href="#DejaVuSans-61" transform="translate(270.654297 0)"/>
     <use xlink:href="#DejaVuSans-63" transform="translate(331.933594 0)"/>
     <use xlink:href="#DejaVuSans-74" transform="translate(386.914062 0)"/>
     <use xlink:href="#DejaVuSans-20" transform="translate(426.123047 0)"/>
     <use xlink:href="#DejaVuSans-63" transform="translate(457.910156 0)"/>
     <use xlink:href="#DejaVuSans-6f" transform="translate(512.890625 0)"/>
     <use xlink:href="#DejaVuSans-6e" transform="translate(574.072266 0)"/>
     <use xlink:href="#DejaVuSans-73" transform="translate(637.451172 0)"/>
     <use xlink:href="#DejaVuSans-69" transform="translate(689.550781 0)"/>
     <use xlink:href="#DejaVuSans-73" transform="translate(717.333984 0)"/>
     <use xlink:href="#DejaVuSans-74" transform="translate(769.433594 0)"/>
     <use xlink:href="#DejaVuSans-65" transform="translate(808.642578 0)"/>
     <use xlink:href="#DejaVuSans-6e" transform="translate(870.166016 0)"/>
     <use xlink:href="#DejaVuSans-63" transform="translate(933.544922 0)"/>
     <use xlink:href="#DejaVuSans-79" transform="translate(988.525391 0)"/>
     <use xlink:href="#DejaVuSans-20" transform="translate(1047.705078 0)"/>
     <use xlink:href="#DejaVuSans-72" transform="translate(1079.492188 0)"/>
     <use xlink:href="#DejaVuSans-65" transform="translate(1118.355469 0)"/>
     <use xlink:href="#DejaVuSans-66" transform="translate(1179.878906 0)"/>
     <use xlink:href="#DejaVuSans-65" transform="translate(1215.083984 0)"/>
     <use xlink:href="#DejaVuSans-72" transform="translate(1276.607422 0)"/>
     <use xlink:href="#DejaVuSans-65" transform="translate(1315.470703 0)"/>
     <use xlink:href="#DejaVuSans-6e" transform="translate(1376.994141 0)"/>
     <use xlink:href="#DejaVuSans-63" transform="translate(1440.373047 0)"/>
     <use xlink:href="#DejaVuSans-65" transform="translate(1495.353516 0)"/>
    </g>
   </g>
   <g id="line2d_48">
    <path d="M 536.153203 257.742281 
L 545.153203 257.742281 
L 554.153203 257.742281 
" style="fill: none; stroke: #b55b24; stroke-width: 1.6; stroke-linecap: square"/>
   </g>
   <g id="text_31">
    <!-- Subtract averaging reference -->
    <g transform="translate(561.353203 260.892281) scale(0.09 -0.09)">
     <use xlink:href="#DejaVuSans-53"/>
     <use xlink:href="#DejaVuSans-75" transform="translate(63.476562 0)"/>
     <use xlink:href="#DejaVuSans-62" transform="translate(126.855469 0)"/>
     <use xlink:href="#DejaVuSans-74" transform="translate(190.332031 0)"/>
     <use xlink:href="#DejaVuSans-72" transform="translate(229.541016 0)"/>
     <use xlink:href="#DejaVuSans-61" transform="translate(270.654297 0)"/>
     <use xlink:href="#DejaVuSans-63" transform="translate(331.933594 0)"/>
     <use xlink:href="#DejaVuSans-74" transform="translate(386.914062 0)"/>
     <use xlink:href="#DejaVuSans-20" transform="translate(426.123047 0)"/>
     <use xlink:href="#DejaVuSans-61" transform="translate(457.910156 0)"/>
     <use xlink:href="#DejaVuSans-76" transform="translate(519.189453 0)"/>
     <use xlink:href="#DejaVuSans-65" transform="translate(578.369141 0)"/>
     <use xlink:href="#DejaVuSans-72" transform="translate(639.892578 0)"/>
     <use xlink:href="#DejaVuSans-61" transform="translate(681.005859 0)"/>
     <use xlink:href="#DejaVuSans-67" transform="translate(742.285156 0)"/>
     <use xlink:href="#DejaVuSans-69" transform="translate(805.761719 0)"/>
     <use xlink:href="#DejaVuSans-6e" transform="translate(833.544922 0)"/>
     <use xlink:href="#DejaVuSans-67" transform="translate(896.923828 0)"/>
     <use xlink:href="#DejaVuSans-20" transform="translate(960.400391 0)"/>
     <use xlink:href="#DejaVuSans-72" transform="translate(992.1875 0)"/>
     <use xlink:href="#DejaVuSans-65" transform="translate(1031.050781 0)"/>
     <use xlink:href="#DejaVuSans-66" transform="translate(1092.574219 0)"/>
     <use xlink:href="#DejaVuSans-65" transform="translate(1127.779297 0)"/>
     <use xlink:href="#DejaVuSans-72" transform="translate(1189.302734 0)"/>
     <use xlink:href="#DejaVuSans-65" transform="translate(1228.166016 0)"/>
     <use xlink:href="#DejaVuSans-6e" transform="translate(1289.689453 0)"/>
     <use xlink:href="#DejaVuSans-63" transform="translate(1353.068359 0)"/>
     <use xlink:href="#DejaVuSans-65" transform="translate(1408.048828 0)"/>
    </g>
   </g>
  </g>
 </g>
 <defs>
  <clipPath id="pfbf8540857">
   <rect x="56.16" y="57.456" width="235.058824" height="153.216"/>
  </clipPath>
  <clipPath id="pb7e6297060">
   <rect x="338.230588" y="57.456" width="235.058824" height="153.216"/>
  </clipPath>
  <clipPath id="pa68b1f8862">
   <rect x="620.301176" y="57.456" width="235.058824" height="153.216"/>
  </clipPath>
 </defs>
</svg>
